<svg
    xmlns="http://www.w3.org/2000/svg"
    viewBox="0 0 72 72"
    id="vector">
    <path
        id="path"
        d="M 20.1 62.8 C 17.3 62.8 16.3 61.9 16.2 59.8 C 16.2 58.4 16.2 57.1 16.2 55.7 C 16.2 55.3 16.1 55.1 15.9 54.8 C 14.1 52.8 13.2 50.2 13.4 47.6 C 13.5 38.8 13.4 30.2 13.4 21.4 C 13.4 20 13.6 18.7 13.9 17.4 C 14.9 14.2 17.3 12.3 20.4 11.3 C 24 10.1 27.8 9.6 31.6 9.7 C 36.3 9.7 41 9.7 45.7 10.1 C 49.4 10.4 52.9 11.3 55.7 14 C 56.2 14.4 56.5 14.8 56.8 15.4 C 58.2 17.7 58.8 20.5 58.6 23.1 C 58.6 27.1 58.6 31 58.5 34.9 L 58.5 34.9 C 58.5 39.3 58.5 43.7 58.5 48.3 C 58.5 50.6 57.7 53 56.1 54.7 C 55.6 55.2 55.5 55.7 55.5 56.3 C 55.5 57.6 55.5 58.8 55.5 60 C 55.6 61 55 62 54.2 62.5 C 53.8 62.8 53.4 63 52.9 63 C 51.8 63 50.8 63 49.7 63 C 48.2 63 46.9 61.8 46.8 60.2 C 46.8 59.5 46.8 58.8 46.8 58.1 C 46.8 57.7 46.5 57.5 46.2 57.4 L 46.2 57.4 L 25.4 57.4 C 24.9 57.4 24.7 57.6 24.8 58.1 C 24.8 58.6 24.8 59.4 24.8 60 C 24.8 61.6 23.5 62.9 22 62.9 M 35.9 21.1 L 35.9 21.1 C 30.6 21.1 25.3 21.1 20 21.1 C 19.4 21.1 19.1 21.3 19.1 21.9 C 19.1 25.9 19.1 29.9 19.1 33.9 C 19.1 34.5 19.3 34.8 20 34.8 C 30.6 34.8 41.1 34.8 51.7 34.8 C 52.4 34.8 52.6 34.6 52.6 33.9 C 52.6 29.9 52.6 26 52.6 22.2 C 52.6 21.7 52.1 21.2 51.6 21.2 L 51.6 21.2 C 46.4 21.1 41.1 21.1 35.9 21.1 Z M 48.9 51.6 C 51.2 51.3 52.8 49.3 52.5 47.1 C 52.2 44.9 50.2 43.2 48 43.5 C 47.7 43.5 47.5 43.6 47.2 43.7 C 45 44.4 44 46.8 44.7 48.8 C 45.3 50.7 47 51.8 48.9 51.6 L 48.9 51.6 Z M 22.6 51.6 C 24.8 52 26.9 50.5 27.3 48.4 C 27.7 46.2 26.2 44.1 24.1 43.7 C 22 43.3 19.8 44.8 19.4 46.9 C 19.3 47.2 19.3 47.5 19.3 47.8 C 19.3 49.7 20.8 51.3 22.6 51.6 L 22.6 51.6 Z M 31 48.8 C 30.9 50.5 31.9 52.2 33.4 53 C 35 53.8 37 53.6 38.5 52.6 C 39.8 51.8 40.5 50.3 40.4 48.8 L 38.4 48.8 C 37.9 50.6 37 51.3 35.7 51.3 C 34.3 51.3 33.5 50.6 33 48.8 C 33.1 48.8 31 48.8 31 48.8 Z"
        fill="#ffffff"/>
</svg>
